<svg width="60" height="60" viewBox="0 0 60 60" fill="none" xmlns="http://www.w3.org/2000/svg">
<g clip-path="url(#clip0_3108_1779)">
<path d="M30 60C46.5685 60 60 46.5685 60 30C60 13.4315 46.5685 0 30 0C13.4315 0 0 13.4315 0 30C0 46.5685 13.4315 60 30 60Z" fill="#B4C2FA"/>
<path d="M59.7853 26.41L47.9845 14.6093L36.7397 25.8542L22.7148 11.8293L17.0172 17.527L32.5288 33.0386L17.54 48.0274L29.5064 59.9939C29.6708 59.9966 29.835 60.0001 30 60.0001C46.5686 60.0001 60 46.5686 60 30.0001C60 28.785 59.9258 27.5873 59.7853 26.41Z" fill="#8093F1"/>
<path d="M30 41.5621L32.618 28.3992L30 12.0148C27.715 11.9637 25.4447 12.3929 23.336 13.2746L23.3382 13.2726L22.7148 11.8291L18.063 14.2714L12.0154 14.609L14.7567 21.4449L14.7589 21.4429C13.7287 23.5999 13.1847 25.9568 13.1652 28.347C13.1438 30.7961 13.6569 33.1229 14.5947 35.2183C15.4833 37.2039 15.708 39.4091 15.3999 41.5625L30 41.5621Z" fill="#AD6D68"/>
<path d="M30 41.5621V12.0148C32.285 11.9637 34.5553 12.3929 36.664 13.2746L36.6619 13.2726L37.2852 11.8291L41.9371 14.2714L47.9846 14.609L45.2433 21.4449L45.2412 21.4429C46.2713 23.5999 46.8153 25.9568 46.8348 28.347C46.8563 30.7961 46.3431 33.1229 45.4054 35.2183C44.5167 37.2039 44.2921 39.4091 44.6002 41.5625L30 41.5621Z" fill="#99584D"/>
<path d="M12.0153 14.609L22.7147 11.8291L22.0131 20.2745C22.0131 21.8776 20.0715 22.6768 18.9429 21.5382L12.0153 14.609Z" fill="#C48174"/>
<path d="M47.9848 14.609L37.2853 11.8291L37.9869 20.2745C37.9869 21.8776 39.9285 22.6768 41.0571 21.5382L47.9848 14.609Z" fill="#AD6D68"/>
<path d="M30 17.9653C29.884 17.9553 29.7668 17.949 29.6481 17.949C27.3251 17.949 25.4771 19.8969 25.5991 22.2166L26.0778 31.3116C26.1818 33.2861 24.6433 34.9507 22.6674 35.0232C22.6372 35.0243 22.607 35.0255 22.5767 35.0271C18.6695 35.2158 15.5041 38.393 15.3304 42.301C15.136 46.6741 18.6239 50.2805 22.954 50.2805H30L32.6179 34.852L30 17.9653Z" fill="white"/>
<path d="M30 17.9653C30.116 17.9553 30.2332 17.949 30.3519 17.949C32.6749 17.949 34.5229 19.8969 34.4009 22.2166L33.9221 31.3116C33.8182 33.2861 35.3566 34.9507 37.3325 35.0232C37.3628 35.0243 37.393 35.0255 37.4232 35.0271C41.3305 35.2158 44.4959 38.393 44.6695 42.301C44.8639 46.6741 41.3761 50.2805 37.046 50.2805H30V17.9653Z" fill="#E9EDF5"/>
<path d="M30 37.395H26.5956C25.584 37.395 24.764 38.215 24.764 39.2265C24.764 41.924 26.9506 44.1106 29.6481 44.1106C29.7665 44.1106 29.8836 44.1048 30 44.0966L32.2697 40.7528L30 37.395Z" fill="#555A65"/>
<path d="M30 37.395H33.4044C34.416 37.395 35.2359 38.215 35.2359 39.2265C35.2359 41.924 33.0493 44.1106 30.3519 44.1106C30.2334 44.1106 30.1164 44.1048 30 44.0966V37.395Z" fill="#333940"/>
<path d="M22.3632 31.9692C23.334 31.9692 24.121 31.1822 24.121 30.2114C24.121 29.2406 23.334 28.4536 22.3632 28.4536C21.3924 28.4536 20.6054 29.2406 20.6054 30.2114C20.6054 31.1822 21.3924 31.9692 22.3632 31.9692Z" fill="#555A65"/>
<path d="M37.8965 31.9692C38.8674 31.9692 39.6544 31.1822 39.6544 30.2114C39.6544 29.2406 38.8674 28.4536 37.8965 28.4536C36.9257 28.4536 36.1387 29.2406 36.1387 30.2114C36.1387 31.1822 36.9257 31.9692 37.8965 31.9692Z" fill="#333940"/>
</g>
<defs>
<clipPath id="clip0_3108_1779">
<rect width="60" height="60" fill="white"/>
</clipPath>
</defs>
</svg>
