<svg width="80" height="80" viewBox="0 0 80 80" fill="none" xmlns="http://www.w3.org/2000/svg">
<path d="M29.9958 60.0084H16.6569C12.9734 60.0084 9.98743 57.0224 9.98743 53.3389V19.9917C9.98743 16.3083 12.9734 13.3223 16.6569 13.3223H56.6735C60.357 13.3223 63.343 16.3083 63.343 19.9917V36.6653" stroke="white" stroke-width="1.5" stroke-linecap="round" stroke-linejoin="round"/>
<path d="M63.343 29.996H9.98743" stroke="white" stroke-width="1.5" stroke-linecap="round" stroke-linejoin="round"/>
<path d="M24.9965 8.32031V18.3245" stroke="white" stroke-width="1.5" stroke-linecap="round" stroke-linejoin="round"/>
<path d="M48.3397 8.32031V18.3245" stroke="white" stroke-width="1.5" stroke-linecap="round" stroke-linejoin="round"/>
<path fill-rule="evenodd" clip-rule="evenodd" d="M53.3389 56.6736V56.6736C58.864 56.6736 63.343 61.1526 63.343 66.6778V66.6778C63.343 68.5195 61.85 70.0125 60.0083 70.0125H46.6694C44.8277 70.0125 43.3347 68.5195 43.3347 66.6778V66.6778C43.3347 61.1526 47.8137 56.6736 53.3389 56.6736Z" stroke="white" stroke-width="1.5" stroke-linecap="round" stroke-linejoin="round"/>
<path d="M43.3375 49.1706C42.8767 49.1725 42.5045 49.5465 42.5058 50.0065C42.507 50.4665 42.8812 50.8386 43.342 50.838C43.8028 50.8374 44.176 50.4643 44.176 50.0043C44.1769 49.7823 44.0887 49.5693 43.9312 49.4126C43.7737 49.256 43.5599 49.1688 43.3375 49.1706" stroke="white" stroke-width="1.5" stroke-linecap="round" stroke-linejoin="round"/>
<path d="M63.3458 49.1706C62.885 49.1725 62.5128 49.5465 62.5141 50.0065C62.5153 50.4665 62.8895 50.8386 63.3503 50.838C63.8111 50.8374 64.1843 50.4643 64.1843 50.0043C64.1852 49.7823 64.097 49.5693 63.9395 49.4126C63.782 49.256 63.5682 49.1688 63.3458 49.1706" stroke="white" stroke-width="1.5" stroke-linecap="round" stroke-linejoin="round"/>
<path d="M53.3417 45.8359C52.8809 45.8377 52.5087 46.2118 52.5099 46.6718C52.5111 47.1318 52.8853 47.5039 53.3461 47.5032C53.8069 47.5026 54.1801 47.1296 54.1801 46.6696C54.181 46.4476 54.0929 46.2345 53.9353 46.0779C53.7778 45.9213 53.564 45.8341 53.3417 45.8359" stroke="white" stroke-width="1.5" stroke-linecap="round" stroke-linejoin="round"/>
</svg>
