<svg width="60" height="60" viewBox="0 0 60 60" fill="none" xmlns="http://www.w3.org/2000/svg">
<g clip-path="url(#clip0_3108_1815)">
<path d="M30 60C46.5685 60 60 46.5685 60 30C60 13.4315 46.5685 0 30 0C13.4315 0 0 13.4315 0 30C0 46.5685 13.4315 60 30 60Z" fill="#B4C2FA"/>
<path d="M33.1038 28.3596L31.4174 26.6731L12.2184 45.8719L26.0934 59.7469C27.3888 59.9155 28.6937 60 30 60C46.5686 60 60 46.5685 60 30C60 26.708 59.4681 23.5408 58.4884 20.5774L49.6872 11.7761L33.1038 28.3596Z" fill="#8093F1"/>
<path d="M11.032 26.8756C10.3245 25.6589 9.49184 23.8775 9.07711 21.6073C8.24426 17.0491 9.61348 13.3539 10.313 11.7761L21.2115 18.031C18.2341 20.2408 14.0095 24.6659 11.032 26.8756Z" fill="#E9EDF5"/>
<path d="M12.4964 23.8742C12.0936 23.1817 11.6198 22.1677 11.3837 20.8756C10.9097 18.2812 11.689 16.178 12.0872 15.28L18.2904 18.8402C16.5957 20.0978 14.1912 22.6166 12.4964 23.8742Z" fill="white"/>
<path d="M48.9679 26.8756C49.6755 25.6589 50.5081 23.8775 50.9229 21.6073C51.7557 17.0491 50.3865 13.3539 49.687 11.7761L38.7885 18.031C41.7658 20.2408 45.9904 24.6659 48.9679 26.8756Z" fill="#CDD2E1"/>
<path d="M47.5036 23.8742C47.9064 23.1817 48.3802 22.1677 48.6163 20.8756C49.0903 18.2812 48.311 16.178 47.9128 15.28L41.7096 18.8402C43.4043 20.0978 45.8088 22.6166 47.5036 23.8742ZM12.7372 22.2691C9.18377 27.5798 8.57978 36.8846 13.329 42.3205C17.3179 46.0496 19.9358 46.1992 23.3426 48.6229C26.1529 50.5987 28.0834 51.5654 30 51.5682L32.7367 32.1021L30 15.5998C23.1479 15.741 18.196 15.9106 12.7372 22.2691Z" fill="#E9EDF5"/>
<path d="M46.6711 42.3203C51.4202 36.8845 50.8164 27.5798 47.2629 22.269C41.8042 15.9104 36.8522 15.7408 30.0001 15.5996V51.5681C31.9167 51.5653 33.8473 50.5986 36.6575 48.6228C40.0642 46.1993 42.6823 46.0495 46.6711 42.3203Z" fill="#CDD2E1"/>
<path d="M30 39.7507L25.5821 38.9785H24.9354C21.9115 38.9785 19.46 41.4298 19.46 44.4539C19.46 47.4778 21.9113 49.9292 24.9354 49.9292C27.2222 49.9292 29.1807 48.5267 30 46.5355L31.9244 43.3188L30 39.7507Z" fill="white"/>
<path d="M30 39.7507L34.4179 38.9785H35.0646C38.0885 38.9785 40.54 41.4298 40.54 44.4539C40.54 47.4778 38.0886 49.9292 35.0646 49.9292C32.7778 49.9292 30.8193 48.5267 30 46.5355V39.7507Z" fill="#E9EDF5"/>
<path d="M25.5822 38.9785L30 43.1909L31.5588 40.4102L30 38.9785H25.5822Z" fill="#555A65"/>
<path d="M34.4179 38.9785L30 43.1909V38.9785H34.4179Z" fill="#333940"/>
<path d="M18.1756 39.0011C16.119 38.6295 14.0196 38.5556 11.942 38.7819L12.1458 40.6547C14.0452 40.448 15.9599 40.5107 17.8405 40.855C19.6637 41.1845 21.4319 41.7669 23.094 42.5853L23.9261 40.895C22.1067 39.9992 20.1712 39.3617 18.1756 39.0011ZM17.8695 43.1967C15.7796 43.1878 13.6994 43.4796 11.6926 44.0631L12.2186 45.8722C14.0531 45.3387 15.9497 45.0679 17.8616 45.0805C19.7143 45.0883 21.5568 45.3548 23.3358 45.8722L23.8617 44.0631C21.9144 43.4969 19.8975 43.2053 17.8695 43.1967Z" fill="#555A65"/>
<path d="M41.8245 39.0011C43.8811 38.6295 45.9804 38.5556 48.058 38.7819L47.8542 40.6547C45.9549 40.448 44.0401 40.5107 42.1595 40.855C40.3364 41.1845 38.5681 41.7669 36.906 42.5853L36.074 40.895C37.8933 39.9992 39.8289 39.3617 41.8245 39.0011ZM42.1306 43.1967C44.2204 43.1878 46.3007 43.4796 48.3074 44.0631L47.7815 45.8722C45.9469 45.3387 44.0503 45.0679 42.1384 45.0805C40.2857 45.0883 38.4432 45.3548 36.6643 45.8722L36.1383 44.0631C38.0857 43.4969 40.1026 43.2053 42.1306 43.1967Z" fill="#333940"/>
<path d="M24.6828 33.7365L23.0942 34.0166C20.1473 34.5362 17.3372 32.5685 16.8174 29.6216L16.5374 28.033L18.1259 27.7529C21.0729 27.2333 23.883 29.201 24.4027 32.1479L24.6828 33.7365Z" fill="#555A65"/>
<path d="M35.3171 33.7365L36.9057 34.0166C39.8526 34.5362 42.6628 32.5685 43.1825 29.6216L43.4626 28.033L41.874 27.7529C38.9271 27.2333 36.1169 29.201 35.5972 32.1479L35.3171 33.7365Z" fill="#333940"/>
</g>
<defs>
<clipPath id="clip0_3108_1815">
<rect width="60" height="60" fill="white"/>
</clipPath>
</defs>
</svg>
