<svg width="14" height="15" viewBox="0 0 14 15" fill="none" xmlns="http://www.w3.org/2000/svg">
<path d="M6.29329 3.55336C6.52714 3.51751 6.76339 3.49968 6.99996 3.50002C9.11996 3.50002 11.1133 5.02669 12.2733 7.50002C12.0959 7.87642 11.8955 8.24155 11.6733 8.59336C11.6027 8.70256 11.5657 8.83001 11.5666 8.96002C11.5681 9.10551 11.6172 9.24653 11.7063 9.36154C11.7954 9.47655 11.9197 9.55926 12.0602 9.59703C12.2007 9.6348 12.3497 9.62557 12.4845 9.57074C12.6193 9.51591 12.7324 9.41849 12.8066 9.29336C13.1172 8.80531 13.3871 8.29246 13.6133 7.76002C13.6491 7.67684 13.6675 7.58724 13.6675 7.49669C13.6675 7.40614 13.6491 7.31654 13.6133 7.23336C12.2666 4.10669 9.73329 2.16669 6.99996 2.16669C6.68707 2.16511 6.37468 2.19189 6.06663 2.24669C5.97908 2.26157 5.89532 2.29355 5.82013 2.34081C5.74494 2.38806 5.6798 2.44966 5.62842 2.52209C5.57704 2.59452 5.54042 2.67636 5.52067 2.76294C5.50092 2.84952 5.49841 2.93914 5.51329 3.02669C5.52818 3.11424 5.56016 3.198 5.60741 3.27318C5.65467 3.34837 5.71627 3.41352 5.7887 3.4649C5.86113 3.51628 5.94297 3.55289 6.02955 3.57265C6.11612 3.5924 6.20575 3.59491 6.29329 3.58002V3.55336ZM1.47329 1.02669C1.41114 0.964529 1.33734 0.915222 1.25613 0.881582C1.17491 0.847942 1.08787 0.830627 0.999961 0.830627C0.912055 0.830627 0.825009 0.847942 0.743795 0.881582C0.66258 0.915222 0.588787 0.964529 0.526627 1.02669C0.401092 1.15222 0.330566 1.32249 0.330566 1.50002C0.330566 1.67756 0.401092 1.84782 0.526627 1.97336L2.59329 4.03336C1.65034 4.94104 0.899865 6.02935 0.386627 7.23336C0.349919 7.31747 0.330971 7.40825 0.330971 7.50002C0.330971 7.59179 0.349919 7.68258 0.386627 7.76669C1.73329 10.8934 4.26663 12.8334 6.99996 12.8334C8.19803 12.8251 9.36781 12.4684 10.3666 11.8067L12.5266 13.9734C12.5886 14.0358 12.6623 14.0854 12.7436 14.1193C12.8248 14.1531 12.912 14.1706 13 14.1706C13.088 14.1706 13.1751 14.1531 13.2563 14.1193C13.3376 14.0854 13.4113 14.0358 13.4733 13.9734C13.5358 13.9114 13.5854 13.8376 13.6192 13.7564C13.6531 13.6752 13.6705 13.588 13.6705 13.5C13.6705 13.412 13.6531 13.3249 13.6192 13.2436C13.5854 13.1624 13.5358 13.0887 13.4733 13.0267L1.47329 1.02669ZM5.71329 7.15336L7.34663 8.78669C7.23395 8.819 7.11717 8.83472 6.99996 8.83336C6.64634 8.83336 6.3072 8.69288 6.05715 8.44283C5.8071 8.19278 5.66663 7.85364 5.66663 7.50002C5.66526 7.38281 5.68098 7.26603 5.71329 7.15336ZM6.99996 11.5C4.87996 11.5 2.88663 9.97336 1.73329 7.50002C2.16402 6.54919 2.77534 5.69107 3.53329 4.97336L4.71329 6.16669C4.43613 6.67255 4.33045 7.25465 4.41213 7.82566C4.49381 8.39667 4.75844 8.9258 5.16631 9.33367C5.57419 9.74155 6.10332 10.0062 6.67432 10.0879C7.24533 10.1695 7.82743 10.0639 8.33329 9.78669L9.3933 10.8334C8.66736 11.2606 7.84224 11.4904 6.99996 11.5Z" fill="#3E3E40"/>
</svg>
