<svg width="60" height="60" viewBox="0 0 60 60" fill="none" xmlns="http://www.w3.org/2000/svg">
<g clip-path="url(#clip0_3108_1797)">
<path d="M30 60C46.5685 60 60 46.5685 60 30C60 13.4315 46.5685 0 30 0C13.4315 0 0 13.4315 0 30C0 46.5685 13.4315 60 30 60Z" fill="#B4C2FA"/>
<path d="M48.9582 16.5209L31.2731 34.2061L16.8521 19.7851L13.0329 23.6044L21.0712 31.6428L11.5223 41.1917L30.3264 59.9957C46.7443 59.8205 60 46.4594 60 29.9999C60 27.4494 59.6807 24.9738 59.0817 22.6096L50.3007 13.8286L48.9582 16.5209Z" fill="#8093F1"/>
<path d="M17.5635 21.4936L11.5223 41.1919L30 51.3972L32.9297 34.8342L30 17.1675C22.8173 17.1675 18.3354 20.6982 17.5635 21.4936Z" fill="#AD6D68"/>
<path d="M42.4365 21.4936C41.6646 20.6982 37.1827 17.1675 30 17.1675V51.3972L48.4777 41.1919L42.4365 21.4936Z" fill="#99584D"/>
<path d="M30 30.3833H25.2067V33.1142L30 39.2851L31.5234 34.073L30 30.3833Z" fill="#FFAA00"/>
<path d="M30 30.3833H34.7933V33.1142L30 39.2851V30.3833Z" fill="#FF9500"/>
<path d="M21.6796 36.812C24.3268 36.812 26.4729 34.6659 26.4729 32.0187C26.4729 29.3714 24.3268 27.2253 21.6796 27.2253C19.0323 27.2253 16.8862 29.3714 16.8862 32.0187C16.8862 34.6659 19.0323 36.812 21.6796 36.812Z" fill="white"/>
<path d="M21.6796 33.7764C22.6504 33.7764 23.4374 32.9894 23.4374 32.0186C23.4374 31.0477 22.6504 30.2607 21.6796 30.2607C20.7088 30.2607 19.9218 31.0477 19.9218 32.0186C19.9218 32.9894 20.7088 33.7764 21.6796 33.7764Z" fill="#555A65"/>
<path d="M38.3204 36.812C40.9677 36.812 43.1137 34.6659 43.1137 32.0187C43.1137 29.3714 40.9677 27.2253 38.3204 27.2253C35.6731 27.2253 33.5271 29.3714 33.5271 32.0187C33.5271 34.6659 35.6731 36.812 38.3204 36.812Z" fill="white"/>
<path d="M38.3204 33.7764C39.2912 33.7764 40.0782 32.9894 40.0782 32.0186C40.0782 31.0477 39.2912 30.2607 38.3204 30.2607C37.3496 30.2607 36.5626 31.0477 36.5626 32.0186C36.5626 32.9894 37.3496 33.7764 38.3204 33.7764Z" fill="#333940"/>
<path d="M30 16.1483C28.6781 16.1483 27.9816 16.31 24.4413 17.0183C20.1845 17.87 18.0456 18.2955 17.5294 18.275C15.5901 18.1982 12.8893 17.3495 9.69904 13.8281C9.84212 19.5056 11.6499 22.3366 13.3133 23.8752C15.8845 26.2534 18.5265 25.9282 22.9914 28.5223C26.1939 30.3829 28.6359 32.6182 30 34.2259L32.9297 24.0271L30 16.1483Z" fill="#C48174"/>
<path d="M30 16.1483C31.3219 16.1483 32.0184 16.31 35.5587 17.0183C39.8155 17.87 41.9544 18.2955 42.4706 18.275C44.41 18.1982 47.1107 17.3495 50.301 13.8281C50.1579 19.5056 48.3502 22.3366 46.6867 23.8752C44.1155 26.2534 41.4735 25.9282 37.0086 28.5223C33.8061 30.3829 31.3641 32.6182 30 34.2259V16.1483Z" fill="#AD6D68"/>
</g>
<defs>
<clipPath id="clip0_3108_1797">
<rect width="60" height="60" fill="white"/>
</clipPath>
</defs>
</svg>
