<svg width="60" height="60" viewBox="0 0 60 60" fill="none" xmlns="http://www.w3.org/2000/svg">
<g clip-path="url(#clip0_3108_1836)">
<path d="M30 60C46.5685 60 60 46.5685 60 30C60 13.4315 46.5685 0 30 0C13.4315 0 0 13.4315 0 30C0 46.5685 13.4315 60 30 60Z" fill="#B4C2FA"/>
<path d="M47.3787 21.3981L47.1446 21.6321L30.1805 4.66797L29.4669 5.38152L33.1894 9.10398L21.705 20.5884L27.1131 25.9964L12.6034 40.506L14.9695 42.8722L11.0096 46.832L23.4608 59.2832C25.6078 59.7603 27.8006 60.0007 30 60C45.2872 60 57.9034 48.5655 59.7633 33.7827L47.3787 21.3981Z" fill="#8093F1"/>
<path d="M30 4.49072C29.0153 5.44006 27.3042 7.36686 25.9967 10.6459C24.2877 14.9315 24.2633 19.0318 24.3233 20.7678H30L32.1163 12.6293L30 4.49072Z" fill="#555A65"/>
<path d="M30 4.49072C30.9847 5.44006 32.6958 7.36686 34.0034 10.6459C35.7123 14.9315 35.7367 19.0318 35.6767 20.7678H30V4.49072ZM13.7197 40.8374C11.9374 43.6924 11.2769 45.7568 11.0096 46.832C12.085 46.5647 14.1492 45.9041 17.0043 44.1219C20.7357 41.7926 23.645 38.9033 24.848 37.651L22.5192 35.3223L20.1905 32.9935C18.9383 34.1966 16.0491 37.1059 13.7197 40.8374Z" fill="#333940"/>
<path d="M46.3217 40.8375C48.104 43.6925 48.7644 45.7569 49.0317 46.8321C47.9564 46.5648 45.8922 45.9042 43.0371 44.122C39.3056 41.7927 36.3964 38.9034 35.1934 37.6512L37.5222 35.3224L39.8509 32.9937C41.1031 34.1967 43.9923 37.106 46.3217 40.8375Z" fill="#101214"/>
<path d="M30 16.3127H24.9129C16.3658 16.3127 9.08472 22.5215 7.73425 30.9612L30 45.6096L32.1163 30.9612L30 16.3127Z" fill="#333940"/>
<path d="M30 16.3127H35.0871C43.6342 16.3127 50.9153 22.5215 52.2657 30.9612L30 45.6096V16.3127Z" fill="#101214"/>
<path d="M30 30.5918H29.9992C26.718 30.5918 25.0505 31.1893 23.4377 31.7671C21.8344 32.3415 20.1764 32.9355 16.9158 32.9355C13.6552 32.9355 11.9973 32.3416 10.3939 31.7671C9.5864 31.4777 8.76503 31.1835 7.73425 30.9618C7.74093 31.0036 7.74867 31.0451 7.7557 31.0868C9.15796 39.4624 16.4082 45.61 24.9129 45.61H30L32.1163 38.4271L30 30.5918Z" fill="#555A65"/>
<path d="M30 30.5918H30.0008C33.282 30.5918 34.9495 31.1893 36.5623 31.7671C38.1656 32.3415 39.8236 32.9355 43.0842 32.9355C46.3448 32.9355 48.0027 32.3416 49.6061 31.7671C50.4136 31.4777 51.235 31.1835 52.2657 30.9618C52.2591 31.0036 52.2513 31.0451 52.2443 31.0868C50.842 39.4624 43.5918 45.61 35.0871 45.61H30V30.5918Z" fill="#333940"/>
<path d="M30 41.7024C29.9239 41.2196 29.8011 40.6888 29.6049 40.1489C29.2085 39.0577 28.6897 38.4166 28.3911 38.1007C28.0925 38.4166 27.5737 39.0577 27.1773 40.1489C26.9681 40.7245 26.8431 41.2891 26.7685 41.7969C26.7174 41.2838 26.6076 40.6692 26.3788 40.0391C26.0452 39.121 25.6087 38.5816 25.3575 38.3158C25.1062 38.5816 24.6698 39.121 24.3362 40.0391C24.1775 40.4758 24.0763 40.9053 24.0117 41.299C23.9784 40.8221 23.8877 40.2104 23.6591 39.5812C23.3726 38.7924 22.9974 38.329 22.7816 38.1006C22.5657 38.329 22.1907 38.7924 21.9041 39.5812C21.8148 39.8281 21.7423 40.0808 21.687 40.3374C21.6622 39.9834 21.5947 39.5294 21.4251 39.0627C21.2122 38.4765 20.9334 38.1321 20.7731 37.9624C20.6127 38.1321 20.334 38.4765 20.1211 39.0627C20.0787 39.18 20.0416 39.2992 20.0097 39.4199C19.9746 39.1053 19.9043 38.7365 19.7673 38.3595C19.5543 37.7734 19.2756 37.429 19.1152 37.2593C18.9616 37.4218 18.6999 37.7472 18.491 38.2893C18.4667 38.0251 18.4117 37.7032 18.2918 37.3732C18.124 36.9113 17.9043 36.6398 17.7779 36.5061C17.6516 36.6398 17.4319 36.9112 17.264 37.3732C17.0447 37.9769 17.0415 38.5544 17.0492 38.799L22.6702 41.7426L30 43.8105L30.3791 42.7697L30 41.7024Z" fill="#E9EDF5"/>
<path d="M30 36.6139L17.0495 34.3081C17.0417 34.5527 17.0449 35.1302 17.2643 35.7339C17.4321 36.1959 17.6517 36.4673 17.7781 36.601C17.8977 36.4746 18.1001 36.2228 18.2637 35.8056C18.3077 36.0649 18.3745 36.3198 18.4635 36.5674C18.6764 37.1535 18.9552 37.4979 19.1155 37.6676C19.2759 37.4979 19.5546 37.1535 19.7675 36.5674C19.8091 36.4529 19.8439 36.3394 19.8742 36.2279C19.9076 36.5519 19.9778 36.9378 20.1213 37.3328C20.3342 37.919 20.613 38.2634 20.7733 38.4331C20.9338 38.2634 21.2124 37.919 21.4254 37.3328C21.4916 37.1497 21.5454 36.9623 21.5864 36.772C21.6361 37.1798 21.7298 37.6495 21.9043 38.1296C22.191 38.9184 22.566 39.3819 22.7818 39.6103C22.9977 39.3819 23.3727 38.9184 23.6593 38.1296C23.7971 37.7504 23.8847 37.3775 23.94 37.0363C23.9879 37.5626 24.0973 38.2044 24.3364 38.8626C24.6699 39.7806 25.1065 40.3201 25.3577 40.5858C25.609 40.3201 26.0454 39.7806 26.379 38.8626C26.553 38.3837 26.6578 37.9137 26.7208 37.4901C26.7844 38.0859 26.9156 38.7908 27.1775 39.5118C27.574 40.6029 28.0928 41.2441 28.3914 41.56C28.6899 41.2441 29.2087 40.6029 29.6052 39.5118C29.8014 38.9719 29.924 38.4411 30.0002 37.9583L30.3793 37.2738L30 36.6139Z" fill="white"/>
<path d="M30 41.7024C30.0761 41.2196 30.1989 40.6888 30.395 40.1489C30.7915 39.0577 31.3103 38.4166 31.6089 38.1007C31.9075 38.4166 32.4263 39.0577 32.8227 40.1489C33.0319 40.7245 33.1569 41.2891 33.2314 41.7969C33.2825 41.2838 33.3923 40.6692 33.6212 40.0391C33.9547 39.121 34.3912 38.5816 34.6425 38.3158C34.8937 38.5816 35.3302 39.121 35.6638 40.0391C35.8225 40.4758 35.9237 40.9053 35.9883 41.299C36.0216 40.8221 36.1123 40.2104 36.3409 39.5812C36.6274 38.7924 37.0025 38.329 37.2184 38.1006C37.4343 38.329 37.8093 38.7924 38.0959 39.5812C38.1851 39.8281 38.2576 40.0808 38.3129 40.3374C38.3378 39.9834 38.4053 39.5294 38.5748 39.0627C38.7878 38.4765 39.0666 38.1321 39.2269 37.9624C39.3873 38.1321 39.666 38.4765 39.8789 39.0627C39.9213 39.18 39.9584 39.2992 39.9902 39.4199C40.0254 39.1053 40.0957 38.7365 40.2327 38.3595C40.4456 37.7734 40.7244 37.429 40.8847 37.2593C41.0384 37.4218 41.3 37.7472 41.509 38.2893C41.5332 38.0251 41.5883 37.7032 41.7082 37.3732C41.876 36.9113 42.0956 36.6398 42.2221 36.5061C42.3484 36.6398 42.5681 36.9112 42.7359 37.3732C42.9553 37.9769 42.9585 38.5544 42.9507 38.799L37.3297 41.7426L30 43.8105V41.7024Z" fill="#CDD2E1"/>
<path d="M30 36.6139L42.9505 34.3081C42.9582 34.5527 42.9551 35.1302 42.7357 35.7339C42.5679 36.1959 42.3483 36.4673 42.2218 36.601C42.1023 36.4746 41.8999 36.2228 41.7363 35.8056C41.6923 36.0649 41.6255 36.3198 41.5365 36.5674C41.3236 37.1535 41.0448 37.4979 40.8845 37.6676C40.7241 37.4979 40.4454 37.1535 40.2324 36.5674C40.1922 36.4557 40.1566 36.3425 40.1258 36.2279C40.0924 36.5519 40.0222 36.9378 39.8787 37.3328C39.6657 37.919 39.3869 38.2634 39.2266 38.4331C39.0662 38.2634 38.7875 37.919 38.5746 37.3328C38.5084 37.1497 38.4546 36.9623 38.4136 36.772C38.3639 37.1798 38.2701 37.6495 38.0957 38.1296C37.809 38.9184 37.434 39.3819 37.2182 39.6103C37.0023 39.3819 36.6273 38.9184 36.3407 38.1296C36.2028 37.7504 36.1153 37.3775 36.06 37.0363C36.0121 37.5626 35.9027 38.2044 35.6635 38.8626C35.33 39.7806 34.8935 40.3201 34.6423 40.5858C34.391 40.3201 33.9546 39.7806 33.621 38.8626C33.4469 38.3837 33.3422 37.9137 33.2791 37.4901C33.2156 38.0859 33.0844 38.7908 32.8225 39.5118C32.426 40.6029 31.9072 41.2441 31.6086 41.56C31.31 41.2441 30.7912 40.6029 30.3948 39.5118C30.1986 38.9719 30.0759 38.4411 29.9998 37.9583V36.6139H30Z" fill="#E9EDF5"/>
<path d="M30 35.5016C25.2857 35.5016 20.6586 34.658 16.2477 32.9939L15.6273 34.6386C20.2372 36.3777 25.073 37.2594 30 37.2594L30.8311 36.466L30 35.5016Z" fill="#555A65"/>
<path d="M30 35.5016C34.7143 35.5016 39.3414 34.658 43.7523 32.9939L44.3727 34.6386C39.7628 36.3777 34.927 37.2594 30 37.2594V35.5016Z" fill="#333940"/>
<path d="M30 42.3444C22.6942 42.3436 17.84 38.4682 16.5203 37.2739L15.3409 38.5774C16.779 39.8787 22.0653 44.1014 30 44.1022L30.6273 43.2764L30 42.3444Z" fill="#555A65"/>
<path d="M30 42.3444C37.3058 42.3436 42.16 38.4682 43.4797 37.2739L44.6591 38.5774C43.221 39.8787 37.9346 44.1014 30 44.1022V42.3444Z" fill="#333940"/>
<path d="M20.1915 29.0644C18.3913 28.5334 17.4102 26.5521 18.1194 24.8064L24.3074 27.0586C23.7496 28.7655 21.8803 29.6829 20.1915 29.0644Z" fill="#555A65"/>
<path d="M39.8085 29.0644C41.6087 28.5334 42.5898 26.5521 41.8806 24.8064L35.6926 27.0585C36.2504 28.7655 38.1197 29.6829 39.8085 29.0644Z" fill="#333940"/>
</g>
<defs>
<clipPath id="clip0_3108_1836">
<rect width="60" height="60" fill="white"/>
</clipPath>
</defs>
</svg>
