<svg width="80" height="80" viewBox="0 0 80 80" fill="none" xmlns="http://www.w3.org/2000/svg">
<path fill-rule="evenodd" clip-rule="evenodd" d="M38.2226 37.0823V37.0823C43.7477 37.0823 48.2267 41.5613 48.2267 47.0864V47.0864C48.2267 48.9282 46.7337 50.4212 44.892 50.4212H31.5531C29.7114 50.4212 28.2184 48.9282 28.2184 47.0864V47.0864C28.2184 41.5613 32.6974 37.0823 38.2226 37.0823V37.0823Z" stroke="white" stroke-width="1.5" stroke-linecap="round" stroke-linejoin="round"/>
<path d="M55.8299 20.6153C65.554 30.3395 65.5539 46.1055 55.8297 55.8297C46.1055 65.5538 30.3395 65.5538 20.6153 55.8297C10.8911 46.1055 10.8911 30.3395 20.6152 20.6153C25.2849 15.9455 31.6185 13.322 38.2225 13.322C44.8266 13.322 51.1601 15.9455 55.8299 20.6153" stroke="white" stroke-width="1.5" stroke-linecap="round" stroke-linejoin="round"/>
<path d="M66.6777 66.6779L55.8298 55.8301" stroke="white" stroke-width="1.5" stroke-linecap="round" stroke-linejoin="round"/>
<path d="M28.215 29.5791C27.7551 29.5809 27.3835 29.955 27.3847 30.415C27.3859 30.8749 27.7595 31.247 28.2195 31.2464C28.6795 31.2458 29.0521 30.8727 29.0521 30.4127C29.053 30.1908 28.965 29.9777 28.8077 29.8211C28.6504 29.6644 28.437 29.5773 28.215 29.5791" stroke="white" stroke-width="1.5" stroke-linecap="round" stroke-linejoin="round"/>
<path d="M48.2233 29.5791C47.7634 29.5809 47.3918 29.955 47.393 30.415C47.3942 30.8749 47.7678 31.247 48.2278 31.2464C48.6878 31.2458 49.0604 30.8727 49.0604 30.4127C49.0613 30.1908 48.9733 29.9777 48.816 29.8211C48.6587 29.6644 48.4453 29.5773 48.2233 29.5791" stroke="white" stroke-width="1.5" stroke-linecap="round" stroke-linejoin="round"/>
<path d="M38.2192 26.2443C37.7592 26.2462 37.3876 26.6202 37.3889 27.0802C37.3901 27.5402 37.7636 27.9123 38.2236 27.9117C38.6836 27.9111 39.0562 27.538 39.0562 27.078C39.0571 26.8561 38.9691 26.643 38.8118 26.4863C38.6546 26.3297 38.4412 26.2426 38.2192 26.2443" stroke="white" stroke-width="1.5" stroke-linecap="round" stroke-linejoin="round"/>
</svg>
