<svg width="16" height="17" viewBox="0 0 16 17" fill="none" xmlns="http://www.w3.org/2000/svg">
<path d="M14.6133 8.23332C13.2666 5.10666 10.7333 3.16666 7.99998 3.16666C5.26665 3.16666 2.73332 5.10666 1.38665 8.23332C1.34994 8.31743 1.33099 8.40822 1.33099 8.49999C1.33099 8.59176 1.34994 8.68255 1.38665 8.76666C2.73332 11.8933 5.26665 13.8333 7.99998 13.8333C10.7333 13.8333 13.2666 11.8933 14.6133 8.76666C14.65 8.68255 14.669 8.59176 14.669 8.49999C14.669 8.40822 14.65 8.31743 14.6133 8.23332ZM7.99998 12.5C5.88665 12.5 3.88665 10.9733 2.73332 8.49999C3.88665 6.02666 5.88665 4.49999 7.99998 4.49999C10.1133 4.49999 12.1133 6.02666 13.2666 8.49999C12.1133 10.9733 10.1133 12.5 7.99998 12.5ZM7.99998 5.83332C7.47257 5.83332 6.95699 5.98972 6.51846 6.28274C6.07993 6.57575 5.73814 6.99223 5.5363 7.4795C5.33447 7.96677 5.28166 8.50295 5.38456 9.02023C5.48745 9.53751 5.74143 10.0127 6.11437 10.3856C6.48731 10.7585 6.96246 11.0125 7.47974 11.1154C7.99703 11.2183 8.5332 11.1655 9.02047 10.9637C9.50774 10.7618 9.92422 10.42 10.2172 9.98151C10.5103 9.54298 10.6666 9.02741 10.6666 8.49999C10.6666 7.79275 10.3857 7.11447 9.8856 6.61437C9.3855 6.11427 8.70723 5.83332 7.99998 5.83332ZM7.99998 9.83332C7.73627 9.83332 7.47849 9.75512 7.25922 9.60862C7.03996 9.46211 6.86906 9.25387 6.76814 9.01023C6.66723 8.7666 6.64082 8.49851 6.69227 8.23987C6.74372 7.98123 6.8707 7.74365 7.05717 7.55718C7.24364 7.37071 7.48122 7.24372 7.73986 7.19228C7.9985 7.14083 8.26659 7.16723 8.51023 7.26815C8.75386 7.36907 8.9621 7.53996 9.10861 7.75923C9.25512 7.9785 9.33332 8.23628 9.33332 8.49999C9.33332 8.85361 9.19284 9.19275 8.94279 9.4428C8.69274 9.69285 8.35361 9.83332 7.99998 9.83332Z" fill="#3E3E40"/>
</svg>
