<svg width="25" height="24" viewBox="0 0 25 24" fill="none" xmlns="http://www.w3.org/2000/svg">
<path fill-rule="evenodd" clip-rule="evenodd" d="M6.5 18.5841C8.069 17.0591 10.192 16.1211 12.523 16.1211C14.831 16.1211 16.931 17.0401 18.5 18.5371C16.931 20.0621 14.808 21.0001 12.477 21.0001C10.169 21.0001 8.069 20.0811 6.5 18.5841Z" stroke="white" stroke-width="1.5" stroke-linecap="round" stroke-linejoin="round"/>
<path d="M4.475 16.025C3.865 14.811 3.5 13.452 3.5 12C3.5 7.026 7.526 3 12.5 3C17.474 3 21.5 7.026 21.5 12C21.5 13.45 21.137 14.81 20.523 16.023" stroke="white" stroke-width="1.5" stroke-linecap="round" stroke-linejoin="round"/>
<path d="M14.6213 7.87868C15.7929 9.05025 15.7929 10.9497 14.6213 12.1213C13.4497 13.2929 11.5502 13.2929 10.3787 12.1213C9.20711 10.9497 9.20711 9.05025 10.3787 7.87868C11.5502 6.70711 13.4497 6.70711 14.6213 7.87868" stroke="white" stroke-width="1.5" stroke-linecap="round" stroke-linejoin="round"/>
</svg>
