<svg width="80" height="80" viewBox="0 0 80 80" fill="none" xmlns="http://www.w3.org/2000/svg">
<path d="M40 16.6667L56.6667 33.3334" stroke="white" stroke-width="1.5" stroke-linecap="round" stroke-linejoin="round"/>
<path fill-rule="evenodd" clip-rule="evenodd" d="M45 21.6667L55 11.6668L61.6667 18.3334L51.6667 28.3334L45 21.6667Z" stroke="white" stroke-width="1.5" stroke-linecap="round" stroke-linejoin="round"/>
<path d="M10 63.3334L16.6667 56.6667" stroke="white" stroke-width="1.5" stroke-linecap="round" stroke-linejoin="round"/>
<path d="M65 21.6666L51.6666 8.33325" stroke="white" stroke-width="1.5" stroke-linecap="round" stroke-linejoin="round"/>
<circle cx="56.6667" cy="56.6666" r="13.3333" stroke="white" stroke-width="1.5" stroke-linecap="round" stroke-linejoin="round"/>
<path d="M60.8333 56.6679L52.5 56.6654" stroke="white" stroke-width="1.5" stroke-linecap="round" stroke-linejoin="round"/>
<path d="M56.6708 52.5L56.6683 60.8333" stroke="white" stroke-width="1.5" stroke-linecap="round" stroke-linejoin="round"/>
<path d="M35 51.6666L32.357 54.3095C31.7319 54.9347 30.884 55.2859 30 55.2859C29.1159 55.2859 28.2681 54.9347 27.643 54.3095L19.0237 45.6903C18.3986 45.0652 18.0474 44.2173 18.0474 43.3333C18.0474 42.4492 18.3986 41.6013 19.0237 40.9762L41.6667 18.3333L55 31.6666" stroke="white" stroke-width="1.5" stroke-linecap="round" stroke-linejoin="round"/>
<path fill-rule="evenodd" clip-rule="evenodd" d="M26.6666 53.3333L22.357 57.6429C21.0553 58.9446 18.9447 58.9446 17.643 57.6429L15.6903 55.6903C14.3886 54.3885 14.3886 52.278 15.6903 50.9762L20 46.6666L26.6666 53.3333Z" stroke="white" stroke-width="1.5" stroke-linecap="round" stroke-linejoin="round"/>
</svg>
