<svg width="26" height="26" viewBox="0 0 26 26" fill="none" xmlns="http://www.w3.org/2000/svg">
<path fill-rule="evenodd" clip-rule="evenodd" d="M10.9531 21.0495L11.2923 20.7103C11.7452 20.2574 12.3595 20.0029 13 20.0029V20.0029C13.6406 20.0029 14.2549 20.2574 14.7079 20.7104L15.047 21.0495C15.658 21.6605 16.4868 22.0038 17.3509 22.0038H17.7451C19.5446 22.0038 21.0034 20.545 21.0034 18.7455V18.7455C21.0034 17.6561 20.4589 16.6387 19.5525 16.0344V16.0344C18.5326 15.3545 17.6831 14.4489 17.0697 13.3877L16.1493 11.7955C15.5067 10.6836 14.3198 9.99878 13.0355 9.99878V9.99878C11.7722 9.99878 10.6015 10.6616 9.95152 11.7449L8.92134 13.4619C8.31334 14.4752 7.48791 15.3409 6.50465 15.9964L6.44763 16.0344C5.54118 16.6387 4.9967 17.6561 4.9967 18.7455V18.7455C4.9967 20.545 6.45549 22.0038 8.255 22.0038H8.64917C9.51331 22.0038 10.3421 21.6605 10.9531 21.0495V21.0495Z" stroke="white" stroke-width="1.5" stroke-linecap="round" stroke-linejoin="round"/>
<circle cx="5.49684" cy="10.4992" r="1.50063" stroke="white" stroke-width="1.5" stroke-linecap="round" stroke-linejoin="round"/>
<circle cx="20.5031" cy="10.4992" r="1.50063" stroke="white" stroke-width="1.5" stroke-linecap="round" stroke-linejoin="round"/>
<circle cx="9.78432" cy="5.49696" r="1.50063" stroke="white" stroke-width="1.5" stroke-linecap="round" stroke-linejoin="round"/>
<circle cx="16.2156" cy="5.49696" r="1.50063" stroke="white" stroke-width="1.5" stroke-linecap="round" stroke-linejoin="round"/>
</svg>
